<svg xmlns="http://www.w3.org/2000/svg" viewBox="0 0 318.6 318.6">
  <path fill="#E17726" d="M294.4 39.7L181.8 127l28.6-67.9z"/>
  <path fill="#E27625" d="M24.2 39.7l110.8 88.3-27.4-68z"/>
  <path fill="#D55E1D" d="M228.2 216l-36.2 56.4 49.3 28.5 17.5-68.5z"/>
  <path fill="#E27625" d="M90.4 272.4l36.2-56.4-66.8-16-17.5 68.5z"/>
  <path fill="#E27625" d="M126.6 159.5l-33.3-30.8 45.4-21.4 17.3 32.8z"/>
  <path fill="#E27625" d="M192 159.5l33.3-30.8-45.3-21.4-17.4 32.8z"/>
  <path fill="#D55E1D" d="M136 215.8l23.3-64.8 23.3 64.8-23.3 37.4z"/>
  <path fill="#CC661A" d="M90.4 272.4l36.2-19.2-23.3-37.4-12.9 56.6z"/>
  <path fill="#CC661A" d="M228.2 272.4l-36.2-19.2 23.3-37.4 12.9 56.6z"/>
  <path fill="#E27625" d="M211.7 137.3l-24.8 11.6 4.3 29.5 20.5-41.1z"/>
  <path fill="#E27625" d="M106.9 137.3l24.8 11.6-4.3 29.5-20.5-41.1z"/>
</svg>
